# xmcd
#
# Track frame offsets:
#	150
#	19765
#	38673
#	55351
#	73345
#	92489
#	110630
#	130901
#	147450
#	165029
#	195915
#	212554
#	230269
#	244131
#	251464
#	256284
#	265520
#
# Disc length: 3763 seconds
#
# Revision: 1
# Processed by: cddbd v1.4PL0 Copyright (c) Steve Scherf et al.
# Submitted via: EasyCDDAExtractor 5.0.6
#
DISCID=e30eb111
DTITLE=백수탈출 - 백수탈출OST
DYEAR=2003
DGENRE=ost
TTITLE0=Thank you-SLAM
TTITLE1=내 곁에 남아 달라고-국태하,김효진
TTITLE2=바보(Unplugged ver.)-SLAM
TTITLE3=어서 말을해-인소윤
TTITLE4=My Story-SLAM
TTITLE5=비워낼 수 없는 슬픔-이민영
TTITLE6=바보(Rock ver.)-SLAM
TTITLE7=Put A Little Light-Salsa Cowboys
TTITLE8=Missing You-B-Four
TTITLE9=Love Is Like Oxygen-SWEET
TTITLE10=As Tears Go By-Soul Mann
TTITLE11=Brother Louie-The stories
TTITLE12=Thank you(Instrumental)-SLAM
TTITLE13=My Story(Instrumental)-SLAM
TTITLE14=Scat(Instrumental)-SLAM
TTITLE15=바보(Instrumental)-SLAM
TTITLE16=백수탈출Main Theme-SLAM
EXTD=
EXTT0=
EXTT1=
EXTT2=
EXTT3=
EXTT4=
EXTT5=
EXTT6=
EXTT7=
EXTT8=
EXTT9=
EXTT10=
EXTT11=
EXTT12=
EXTT13=
EXTT14=
EXTT15=
EXTT16=
PLAYORDER=
